<mxfile host="65bd71144e">
    <diagram id="dCP0_1V39WwTxSBVzpSB" name="ページ1">
        <mxGraphModel dx="704" dy="597" grid="1" gridSize="10" guides="1" tooltips="1" connect="1" arrows="1" fold="1" page="1" pageScale="1" pageWidth="827" pageHeight="1169" background="none" math="0" shadow="1">
            <root>
                <mxCell id="0"/>
                <mxCell id="1" parent="0"/>
                <mxCell id="52" value="Amazon ECR" style="sketch=0;outlineConnect=0;fontColor=#232F3E;gradientColor=none;strokeColor=#ffffff;fillColor=#232F3E;dashed=0;verticalLabelPosition=middle;verticalAlign=bottom;align=center;html=1;whiteSpace=wrap;fontSize=10;fontStyle=1;spacing=3;shape=mxgraph.aws4.productIcon;prIcon=mxgraph.aws4.ecr;" vertex="1" parent="1">
                    <mxGeometry x="160" y="220" width="80" height="100" as="geometry"/>
                </mxCell>
                <mxCell id="56" value="" style="aspect=fixed;perimeter=ellipsePerimeter;html=1;align=center;shadow=0;dashed=0;spacingTop=3;image;image=img/lib/active_directory/cd_dvd.svg;" vertex="1" parent="1">
                    <mxGeometry x="160" y="400" width="80" height="80" as="geometry"/>
                </mxCell>
                <mxCell id="54" value="" style="sketch=0;aspect=fixed;html=1;points=[];align=center;image;fontSize=12;image=img/lib/mscae/Docker.svg;" vertex="1" parent="1">
                    <mxGeometry x="175" y="419.5" width="50" height="41" as="geometry"/>
                </mxCell>
                <mxCell id="57" value="" style="aspect=fixed;perimeter=ellipsePerimeter;html=1;align=center;shadow=0;dashed=0;spacingTop=3;image;image=img/lib/active_directory/cd_dvd.svg;" vertex="1" parent="1">
                    <mxGeometry x="280" y="400" width="80" height="80" as="geometry"/>
                </mxCell>
                <mxCell id="58" value="" style="sketch=0;aspect=fixed;html=1;points=[];align=center;image;fontSize=12;image=img/lib/mscae/Docker.svg;" vertex="1" parent="1">
                    <mxGeometry x="295" y="419.5" width="50" height="41" as="geometry"/>
                </mxCell>
                <mxCell id="59" value="" style="aspect=fixed;perimeter=ellipsePerimeter;html=1;align=center;shadow=0;dashed=0;spacingTop=3;image;image=img/lib/active_directory/cd_dvd.svg;" vertex="1" parent="1">
                    <mxGeometry x="40" y="400" width="80" height="80" as="geometry"/>
                </mxCell>
                <mxCell id="60" value="" style="sketch=0;aspect=fixed;html=1;points=[];align=center;image;fontSize=12;image=img/lib/mscae/Docker.svg;" vertex="1" parent="1">
                    <mxGeometry x="55" y="419.5" width="50" height="41" as="geometry"/>
                </mxCell>
                <mxCell id="80" value="" style="edgeStyle=elbowEdgeStyle;elbow=vertical;endArrow=classic;html=1;" edge="1" parent="1">
                    <mxGeometry width="50" height="50" relative="1" as="geometry">
                        <mxPoint x="80" y="390" as="sourcePoint"/>
                        <mxPoint x="170" y="330" as="targetPoint"/>
                    </mxGeometry>
                </mxCell>
                <mxCell id="81" value="" style="edgeStyle=elbowEdgeStyle;elbow=vertical;endArrow=classic;html=1;" edge="1" parent="1">
                    <mxGeometry width="50" height="50" relative="1" as="geometry">
                        <mxPoint x="320" y="390.0000000000001" as="sourcePoint"/>
                        <mxPoint x="230" y="330" as="targetPoint"/>
                    </mxGeometry>
                </mxCell>
                <mxCell id="82" value="" style="endArrow=classic;html=1;" edge="1" parent="1">
                    <mxGeometry width="50" height="50" relative="1" as="geometry">
                        <mxPoint x="200" y="390" as="sourcePoint"/>
                        <mxPoint x="200" y="330" as="targetPoint"/>
                    </mxGeometry>
                </mxCell>
            </root>
        </mxGraphModel>
    </diagram>
</mxfile>